<svg xmlns="http://www.w3.org/2000/svg" xmlns:xlink="http://www.w3.org/1999/xlink" width="500" zoomAndPan="magnify" viewBox="0 0 375 374.999991" height="500" preserveAspectRatio="xMidYMid meet" version="1.0"><defs><g/><clipPath id="b9b97859e2"><path d="M 100 9.183594 L 275 9.183594 L 275 195 L 100 195 Z M 100 9.183594 " clip-rule="nonzero"/></clipPath><clipPath id="e1ee3f1d89"><path d="M 25.007812 195 L 349.757812 195 L 349.757812 366 L 25.007812 366 Z M 25.007812 195 " clip-rule="nonzero"/></clipPath></defs><rect x="-37.5" width="450" fill="#ffffff" y="-37.499999" height="449.999989" fill-opacity="1"/><rect x="-37.5" width="450" fill="#d9d9d9" y="-37.499999" height="449.999989" fill-opacity="1"/><g clip-path="url(#b9b97859e2)"><path fill="#307c4c" d="M 187.496094 194.167969 C 235.234375 194.167969 274.066406 143.5 274.066406 95.765625 C 274.066406 48.027344 235.234375 9.183594 187.496094 9.183594 C 139.753906 9.183594 100.917969 48.027344 100.917969 95.765625 C 100.925781 143.496094 139.757812 194.167969 187.496094 194.167969 Z M 187.496094 194.167969 " fill-opacity="1" fill-rule="nonzero"/></g><g clip-path="url(#e1ee3f1d89)"><path fill="#307c4c" d="M 252.488281 195.054688 C 235.695312 207.851562 214.746094 215.464844 192.050781 215.464844 L 182.9375 215.464844 C 160.242188 215.464844 139.289062 207.847656 122.5 195.054688 C 67.664062 203.921875 25.792969 251.445312 25.792969 308.777344 C 25.792969 340.269531 98.1875 365.808594 187.496094 365.808594 C 276.796875 365.808594 349.195312 340.269531 349.195312 308.777344 C 349.195312 251.445312 307.320312 203.921875 252.488281 195.054688 Z M 252.488281 195.054688 " fill-opacity="1" fill-rule="nonzero"/></g><g fill="#ffffff" fill-opacity="1"><g transform="translate(46.503621, 311.533854)"><g><path d="M 75.8125 0 L 52.09375 0 L 25.234375 -32.15625 L 25.234375 0 L 5.296875 0 L 5.296875 -47.53125 L 29.015625 -47.53125 L 55.875 -15.53125 L 55.875 -47.53125 L 75.8125 -47.53125 Z M 75.8125 0 "/></g></g></g><g fill="#ffffff" fill-opacity="1"><g transform="translate(127.604824, 311.533854)"><g><path d="M 62.53125 0 L 5.296875 0 L 5.296875 -47.53125 L 59.90625 -47.53125 L 59.90625 -35.765625 L 25.234375 -35.765625 L 25.234375 -28.3125 L 54.546875 -28.3125 L 54.546875 -19.171875 L 25.234375 -19.171875 L 25.234375 -11.75 L 62.53125 -11.75 Z M 62.53125 0 "/></g></g></g><g fill="#ffffff" fill-opacity="1"><g transform="translate(192.7772, 311.533854)"><g><path d="M 31.390625 1.03125 C 24.972656 1.03125 19.796875 0.34375 15.859375 -1.03125 C 11.929688 -2.414062 8.941406 -4.316406 6.890625 -6.734375 C 4.835938 -9.148438 3.457031 -11.941406 2.75 -15.109375 L 23.90625 -15.109375 C 25.476562 -12.847656 27.972656 -11.71875 31.390625 -11.71875 C 34.816406 -11.71875 37.3125 -12.847656 38.875 -15.109375 C 39.007812 -15.328125 39.078125 -15.523438 39.078125 -15.703125 C 39.078125 -16.296875 38.285156 -16.738281 36.703125 -17.03125 C 35.128906 -17.332031 32.773438 -17.5625 29.640625 -17.71875 C 25.691406 -17.894531 21.539062 -18.316406 17.1875 -18.984375 C 7.5 -20.484375 2.65625 -24.378906 2.65625 -30.671875 C 2.65625 -31.203125 2.6875 -31.765625 2.75 -32.359375 C 3.457031 -35.515625 4.835938 -38.300781 6.890625 -40.71875 C 8.941406 -43.132812 11.929688 -45.03125 15.859375 -46.40625 C 19.796875 -47.789062 24.972656 -48.484375 31.390625 -48.484375 C 37.816406 -48.484375 42.992188 -47.789062 46.921875 -46.40625 C 50.859375 -45.03125 53.851562 -43.132812 55.90625 -40.71875 C 57.957031 -38.300781 59.335938 -35.515625 60.046875 -32.359375 L 38.875 -32.359375 C 37.3125 -34.609375 34.816406 -35.734375 31.390625 -35.734375 C 27.972656 -35.734375 25.476562 -34.609375 23.90625 -32.359375 C 23.800781 -32.179688 23.75 -32.015625 23.75 -31.859375 C 23.75 -31.328125 24.503906 -30.929688 26.015625 -30.671875 C 27.523438 -30.421875 29.753906 -30.207031 32.703125 -30.03125 C 35.648438 -29.863281 38.789062 -29.578125 42.125 -29.171875 C 45.457031 -28.773438 48.578125 -28.085938 51.484375 -27.109375 C 54.390625 -26.128906 56.660156 -24.675781 58.296875 -22.75 C 59.566406 -21.269531 60.203125 -19.394531 60.203125 -17.125 C 60.203125 -16.476562 60.148438 -15.804688 60.046875 -15.109375 C 59.335938 -11.941406 57.957031 -9.148438 55.90625 -6.734375 C 53.851562 -4.316406 50.859375 -2.414062 46.921875 -1.03125 C 42.992188 0.34375 37.816406 1.03125 31.390625 1.03125 Z M 31.390625 1.03125 "/></g></g></g><g fill="#ffffff" fill-opacity="1"><g transform="translate(255.631454, 311.533854)"><g><path d="M 70.171875 0 L 51.328125 0 C 50.472656 -1.1875 49.867188 -2.710938 49.515625 -4.578125 C 49.203125 -6.003906 48.734375 -7.40625 48.109375 -8.78125 C 47.492188 -10.164062 46.429688 -11.316406 44.921875 -12.234375 C 43.410156 -13.148438 41.164062 -13.644531 38.1875 -13.71875 L 25.234375 -13.71875 L 25.234375 0 L 5.296875 0 L 5.296875 -47.53125 L 37.71875 -47.53125 C 45.46875 -47.53125 51.722656 -46.945312 56.484375 -45.78125 C 61.242188 -44.625 64.710938 -42.800781 66.890625 -40.3125 C 69.078125 -37.832031 70.171875 -34.597656 70.171875 -30.609375 C 70.171875 -27.265625 69.414062 -24.457031 67.90625 -22.1875 C 66.394531 -19.914062 64.003906 -18.117188 60.734375 -16.796875 C 63.898438 -15.492188 65.953125 -13.929688 66.890625 -12.109375 C 67.828125 -10.285156 68.40625 -8.28125 68.625 -6.09375 C 68.84375 -4.144531 69.359375 -2.113281 70.171875 0 Z M 25.234375 -25.4375 L 36.625 -25.46875 C 39.8125 -25.46875 42.316406 -25.609375 44.140625 -25.890625 C 45.972656 -26.179688 47.328125 -26.570312 48.203125 -27.0625 C 49.078125 -27.5625 49.632812 -28.113281 49.875 -28.71875 C 50.113281 -29.332031 50.234375 -29.960938 50.234375 -30.609375 C 50.234375 -31.242188 50.113281 -31.867188 49.875 -32.484375 C 49.632812 -33.109375 49.078125 -33.664062 48.203125 -34.15625 C 47.328125 -34.65625 45.972656 -35.046875 44.140625 -35.328125 C 42.316406 -35.617188 39.8125 -35.765625 36.625 -35.765625 L 25.234375 -35.765625 Z M 25.234375 -25.4375 "/></g></g></g></svg>