<svg xmlns="http://www.w3.org/2000/svg" xmlns:xlink="http://www.w3.org/1999/xlink" width="500" zoomAndPan="magnify" viewBox="0 0 375 374.999991" height="500" preserveAspectRatio="xMidYMid meet" version="1.0"><defs><g/><clipPath id="ea92a03523"><path d="M 155 26 L 177 26 L 177 49 L 155 49 Z M 155 26 " clip-rule="nonzero"/></clipPath><clipPath id="82d62d6ada"><path d="M 170.347656 23.015625 L 180.550781 42.019531 L 161.546875 52.222656 L 151.34375 33.21875 Z M 170.347656 23.015625 " clip-rule="nonzero"/></clipPath><clipPath id="42f6e13239"><path d="M 175.449219 32.519531 C 172.632812 27.269531 166.09375 25.300781 160.84375 28.117188 C 155.597656 30.933594 153.628906 37.472656 156.445312 42.722656 C 159.261719 47.96875 165.800781 49.9375 171.046875 47.121094 C 176.296875 44.304688 178.265625 37.765625 175.449219 32.519531 Z M 175.449219 32.519531 " clip-rule="nonzero"/></clipPath><clipPath id="4dc5d56b07"><path d="M 157 28 L 175 28 L 175 47 L 157 47 Z M 157 28 " clip-rule="nonzero"/></clipPath><clipPath id="51c1cf9d9a"><path d="M 169.480469 25.886719 L 177.675781 41.15625 L 162.410156 49.351562 L 154.214844 34.085938 Z M 169.480469 25.886719 " clip-rule="nonzero"/></clipPath><clipPath id="a31881c865"><path d="M 173.578125 33.519531 C 171.316406 29.304688 166.0625 27.722656 161.847656 29.988281 C 157.632812 32.25 156.050781 37.503906 158.3125 41.71875 C 160.578125 45.933594 165.828125 47.515625 170.042969 45.253906 C 174.261719 42.988281 175.84375 37.738281 173.578125 33.519531 Z M 173.578125 33.519531 " clip-rule="nonzero"/></clipPath><clipPath id="b36a106a42"><path d="M 160 31 L 172 31 L 172 44 L 160 44 Z M 160 31 " clip-rule="nonzero"/></clipPath><clipPath id="ad6cb56f88"><path d="M 168.335938 29.691406 L 173.875 40.007812 L 163.558594 45.546875 L 158.015625 35.230469 Z M 168.335938 29.691406 " clip-rule="nonzero"/></clipPath><clipPath id="4b70402f55"><path d="M 171.105469 34.851562 C 169.574219 32 166.023438 30.929688 163.175781 32.460938 C 160.328125 33.992188 159.257812 37.539062 160.785156 40.390625 C 162.316406 43.238281 165.867188 44.308594 168.714844 42.777344 C 171.566406 41.25 172.632812 37.699219 171.105469 34.851562 Z M 171.105469 34.851562 " clip-rule="nonzero"/></clipPath><clipPath id="51cd129eb4"><path d="M 162 34 L 170 34 L 170 42 L 162 42 Z M 162 34 " clip-rule="nonzero"/></clipPath><clipPath id="98b494ec69"><path d="M 167.363281 32.769531 L 170.699219 38.988281 L 164.480469 42.328125 L 161.140625 36.109375 Z M 167.363281 32.769531 " clip-rule="nonzero"/></clipPath><clipPath id="435fe5c0b2"><path d="M 169.03125 35.878906 C 168.109375 34.160156 165.96875 33.515625 164.25 34.4375 C 162.535156 35.359375 161.890625 37.5 162.8125 39.21875 C 163.734375 40.933594 165.875 41.578125 167.589844 40.65625 C 169.308594 39.734375 169.953125 37.59375 169.03125 35.878906 Z M 169.03125 35.878906 " clip-rule="nonzero"/></clipPath><clipPath id="de99fa9edb"><path d="M 173 30 L 198 30 L 198 47 L 173 47 Z M 173 30 " clip-rule="nonzero"/></clipPath><clipPath id="bf7a487a36"><path d="M 177.171875 25.84375 L 201.210938 39.238281 L 196.457031 47.765625 L 172.421875 34.371094 Z M 177.171875 25.84375 " clip-rule="nonzero"/></clipPath><clipPath id="e5974d412d"><path d="M 177.171875 25.84375 L 201.210938 39.238281 L 196.457031 47.765625 L 172.421875 34.371094 Z M 177.171875 25.84375 " clip-rule="nonzero"/></clipPath><clipPath id="9b597a0012"><path d="M 190 30 L 196 30 L 196 36 L 190 36 Z M 190 30 " clip-rule="nonzero"/></clipPath><clipPath id="81e3469820"><path d="M 191.394531 29.292969 L 197.027344 34.960938 L 195.136719 36.835938 L 189.507812 31.171875 Z M 191.394531 29.292969 " clip-rule="nonzero"/></clipPath><clipPath id="3fef95a180"><path d="M 191.394531 29.292969 L 197.027344 34.960938 L 195.136719 36.835938 L 189.507812 31.171875 Z M 191.394531 29.292969 " clip-rule="nonzero"/></clipPath><clipPath id="d37ac7a8d5"><path d="M 200 78 L 208 78 L 208 82 L 200 82 Z M 200 78 " clip-rule="nonzero"/></clipPath><clipPath id="9e19c32dfd"><path d="M 207.976562 80.164062 L 200.324219 82.457031 L 199.5625 79.910156 L 207.214844 77.613281 Z M 207.976562 80.164062 " clip-rule="nonzero"/></clipPath><clipPath id="3dc5fc5c72"><path d="M 207.976562 80.164062 L 200.324219 82.457031 L 199.5625 79.910156 L 207.214844 77.613281 Z M 207.976562 80.164062 " clip-rule="nonzero"/></clipPath><clipPath id="b9c85000ce"><path d="M 199 41 L 222 41 L 222 63 L 199 63 Z M 199 41 " clip-rule="nonzero"/></clipPath><clipPath id="92d014aaf7"><path d="M 221.4375 62.664062 L 199.867188 62.703125 L 199.832031 41.132812 L 221.402344 41.097656 Z M 221.4375 62.664062 " clip-rule="nonzero"/></clipPath><clipPath id="9ecdcbefd8"><path d="M 210.652344 62.683594 C 216.609375 62.675781 221.429688 57.835938 221.417969 51.882812 C 221.410156 45.925781 216.574219 41.105469 210.617188 41.113281 C 204.660156 41.125 199.839844 45.960938 199.851562 51.917969 C 199.859375 57.871094 204.695312 62.695312 210.652344 62.683594 Z M 210.652344 62.683594 " clip-rule="nonzero"/></clipPath><clipPath id="d5e19c3ca7"><path d="M 201 43 L 220 43 L 220 61 L 201 61 Z M 201 43 " clip-rule="nonzero"/></clipPath><clipPath id="6a03f5ac39"><path d="M 219.3125 60.546875 L 201.984375 60.574219 L 201.957031 43.25 L 219.28125 43.21875 Z M 219.3125 60.546875 " clip-rule="nonzero"/></clipPath><clipPath id="8a9d76f28b"><path d="M 210.648438 60.5625 C 215.433594 60.554688 219.304688 56.667969 219.296875 51.882812 C 219.289062 47.097656 215.40625 43.226562 210.621094 43.234375 C 205.835938 43.242188 201.960938 47.128906 201.96875 51.914062 C 201.976562 56.695312 205.863281 60.570312 210.648438 60.5625 Z M 210.648438 60.5625 " clip-rule="nonzero"/></clipPath><clipPath id="8b2af250e2"><path d="M 204 46 L 217 46 L 217 58 L 204 58 Z M 204 46 " clip-rule="nonzero"/></clipPath><clipPath id="62a672ce28"><path d="M 216.5 57.742188 L 204.789062 57.761719 L 204.769531 46.050781 L 216.480469 46.03125 Z M 216.5 57.742188 " clip-rule="nonzero"/></clipPath><clipPath id="835e05ec5d"><path d="M 210.644531 57.753906 C 213.875 57.746094 216.492188 55.121094 216.488281 51.886719 C 216.484375 48.652344 213.859375 46.035156 210.625 46.042969 C 207.390625 46.046875 204.773438 48.671875 204.777344 51.90625 C 204.785156 55.140625 207.410156 57.757812 210.644531 57.753906 Z M 210.644531 57.753906 " clip-rule="nonzero"/></clipPath><clipPath id="153afef7a6"><path d="M 207 48 L 215 48 L 215 56 L 207 56 Z M 207 48 " clip-rule="nonzero"/></clipPath><clipPath id="5437d6be38"><path d="M 214.234375 55.429688 L 207.175781 55.441406 L 207.164062 48.382812 L 214.222656 48.371094 Z M 214.234375 55.429688 " clip-rule="nonzero"/></clipPath><clipPath id="181edeb0e9"><path d="M 210.703125 55.4375 C 212.652344 55.433594 214.230469 53.851562 214.230469 51.902344 C 214.226562 49.953125 212.644531 48.375 210.695312 48.378906 C 208.746094 48.382812 207.167969 49.964844 207.167969 51.914062 C 207.171875 53.863281 208.753906 55.441406 210.703125 55.4375 Z M 210.703125 55.4375 " clip-rule="nonzero"/></clipPath><clipPath id="2d9ead8934"><path d="M 46 28.253906 L 328 28.253906 L 328 322.933594 L 46 322.933594 Z M 46 28.253906 " clip-rule="nonzero"/></clipPath><clipPath id="ccae8ef3da"><path d="M 2.40625 151 L 35 151 L 35 254 L 2.40625 254 Z M 2.40625 151 " clip-rule="nonzero"/></clipPath><clipPath id="220cae66a0"><path d="M 340 151 L 372.535156 151 L 372.535156 254 L 340 254 Z M 340 151 " clip-rule="nonzero"/></clipPath><clipPath id="e1f369f8c0"><path d="M 207 141 L 295 141 L 295 229 L 207 229 Z M 207 141 " clip-rule="nonzero"/></clipPath><clipPath id="0f73ce9e40"><path d="M 197.953125 153.160156 L 282.320312 132.199219 L 303.285156 216.5625 L 218.917969 237.527344 Z M 197.953125 153.160156 " clip-rule="nonzero"/></clipPath><clipPath id="e878b8999e"><path d="M 240.136719 142.679688 C 216.839844 148.46875 202.648438 172.046875 208.4375 195.34375 C 214.226562 218.640625 237.804688 232.832031 261.101562 227.046875 C 284.398438 221.257812 298.589844 197.675781 292.800781 174.378906 C 287.011719 151.082031 263.433594 136.890625 240.136719 142.679688 Z M 240.136719 142.679688 " clip-rule="nonzero"/></clipPath><clipPath id="a5c69f0260"><path d="M 215 149 L 286 149 L 286 220 L 215 220 Z M 215 149 " clip-rule="nonzero"/></clipPath><clipPath id="b302f03625"><path d="M 208.3125 159.398438 L 276.082031 142.558594 L 292.921875 210.328125 L 225.152344 227.167969 Z M 208.3125 159.398438 " clip-rule="nonzero"/></clipPath><clipPath id="3b5d7814ed"><path d="M 242.199219 150.976562 C 223.484375 155.628906 212.082031 174.566406 216.734375 193.28125 C 221.382812 211.996094 240.324219 223.398438 259.039062 218.746094 C 277.753906 214.097656 289.152344 195.15625 284.503906 176.441406 C 279.855469 157.726562 260.914062 146.328125 242.199219 150.976562 Z M 242.199219 150.976562 " clip-rule="nonzero"/></clipPath><clipPath id="47bebe7c90"><path d="M 227 161 L 275 161 L 275 209 L 227 209 Z M 227 161 " clip-rule="nonzero"/></clipPath><clipPath id="b11a49caa5"><path d="M 222.027344 167.652344 L 267.828125 156.269531 L 279.210938 202.074219 L 233.40625 213.453125 Z M 222.027344 167.652344 " clip-rule="nonzero"/></clipPath><clipPath id="3f6806f9c5"><path d="M 244.929688 161.960938 C 232.28125 165.105469 224.574219 177.90625 227.71875 190.554688 C 230.859375 203.203125 243.660156 210.90625 256.308594 207.765625 C 268.957031 204.621094 276.664062 191.820312 273.519531 179.171875 C 270.378906 166.523438 257.578125 158.816406 244.929688 161.960938 Z M 244.929688 161.960938 " clip-rule="nonzero"/></clipPath><clipPath id="7b97b0fc81"><path d="M 236 170 L 265 170 L 265 200 L 236 200 Z M 236 170 " clip-rule="nonzero"/></clipPath><clipPath id="501a361db7"><path d="M 233.078125 174.488281 L 260.6875 167.628906 L 267.546875 195.234375 L 239.9375 202.097656 Z M 233.078125 174.488281 " clip-rule="nonzero"/></clipPath><clipPath id="55f0adcfa3"><path d="M 246.882812 171.058594 C 239.257812 172.953125 234.613281 180.667969 236.507812 188.292969 C 238.402344 195.917969 246.117188 200.5625 253.742188 198.667969 C 261.367188 196.773438 266.011719 189.054688 264.117188 181.433594 C 262.222656 173.808594 254.507812 169.164062 246.882812 171.058594 Z M 246.882812 171.058594 " clip-rule="nonzero"/></clipPath><clipPath id="2e379bc734"><path d="M 80 141 L 168 141 L 168 229 L 80 229 Z M 80 141 " clip-rule="nonzero"/></clipPath><clipPath id="0518079f93"><path d="M 71.007812 153.160156 L 155.375 132.199219 L 176.335938 216.5625 L 91.972656 237.527344 Z M 71.007812 153.160156 " clip-rule="nonzero"/></clipPath><clipPath id="4a4f32f939"><path d="M 113.191406 142.679688 C 89.894531 148.46875 75.699219 172.046875 81.488281 195.34375 C 87.277344 218.640625 110.855469 232.832031 134.152344 227.046875 C 157.449219 221.257812 171.644531 197.675781 165.855469 174.378906 C 160.066406 151.082031 136.488281 136.890625 113.191406 142.679688 Z M 113.191406 142.679688 " clip-rule="nonzero"/></clipPath><clipPath id="dc3284a1c7"><path d="M 88 149 L 159 149 L 159 220 L 88 220 Z M 88 149 " clip-rule="nonzero"/></clipPath><clipPath id="7d4f649d95"><path d="M 81.367188 159.398438 L 149.136719 142.558594 L 165.976562 210.328125 L 98.207031 227.167969 Z M 81.367188 159.398438 " clip-rule="nonzero"/></clipPath><clipPath id="95c82f3036"><path d="M 115.253906 150.976562 C 96.539062 155.628906 85.136719 174.566406 89.785156 193.28125 C 94.4375 211.996094 113.378906 223.398438 132.09375 218.746094 C 150.804688 214.097656 162.207031 195.15625 157.558594 176.441406 C 152.90625 157.726562 133.964844 146.328125 115.253906 150.976562 Z M 115.253906 150.976562 " clip-rule="nonzero"/></clipPath><clipPath id="6ea56af49a"><path d="M 100 161 L 148 161 L 148 209 L 100 209 Z M 100 161 " clip-rule="nonzero"/></clipPath><clipPath id="5cefee4be6"><path d="M 95.078125 167.652344 L 140.882812 156.269531 L 152.265625 202.074219 L 106.460938 213.453125 Z M 95.078125 167.652344 " clip-rule="nonzero"/></clipPath><clipPath id="837d7c1922"><path d="M 117.980469 161.960938 C 105.332031 165.105469 97.628906 177.90625 100.769531 190.554688 C 103.914062 203.203125 116.714844 210.90625 129.363281 207.765625 C 142.011719 204.621094 149.714844 191.820312 146.574219 179.171875 C 143.429688 166.523438 130.628906 158.816406 117.980469 161.960938 Z M 117.980469 161.960938 " clip-rule="nonzero"/></clipPath><clipPath id="1b1b79fd3d"><path d="M 109 170 L 138 170 L 138 200 L 109 200 Z M 109 170 " clip-rule="nonzero"/></clipPath><clipPath id="f0506d7d25"><path d="M 106.132812 174.488281 L 133.738281 167.628906 L 140.601562 195.234375 L 112.992188 202.097656 Z M 106.132812 174.488281 " clip-rule="nonzero"/></clipPath><clipPath id="1cbac0b011"><path d="M 119.9375 171.058594 C 112.3125 172.953125 107.667969 180.667969 109.5625 188.292969 C 111.457031 195.917969 119.171875 200.5625 126.796875 198.667969 C 134.417969 196.773438 139.0625 189.054688 137.171875 181.433594 C 135.277344 173.808594 127.558594 169.164062 119.9375 171.058594 Z M 119.9375 171.058594 " clip-rule="nonzero"/></clipPath><clipPath id="0a3fa32b6f"><path d="M 167 65 L 190 65 L 190 87 L 167 87 Z M 167 65 " clip-rule="nonzero"/></clipPath><clipPath id="2293bbcd6a"><path d="M 165.457031 84.140625 L 170.539062 63.179688 L 191.503906 68.265625 L 186.417969 89.226562 Z M 165.457031 84.140625 " clip-rule="nonzero"/></clipPath><clipPath id="eb16e4ea53"><path d="M 168 73.660156 C 166.59375 79.449219 170.148438 85.28125 175.9375 86.683594 C 181.726562 88.089844 187.554688 84.535156 188.960938 78.746094 C 190.363281 72.957031 186.808594 67.128906 181.023438 65.722656 C 175.234375 64.320312 169.402344 67.871094 168 73.660156 Z M 168 73.660156 " clip-rule="nonzero"/></clipPath><clipPath id="3b3205468a"><path d="M 169 67 L 188 67 L 188 85 L 169 85 Z M 169 67 " clip-rule="nonzero"/></clipPath><clipPath id="717462f198"><path d="M 168.019531 82.582031 L 172.101562 65.742188 L 188.941406 69.828125 L 184.855469 86.664062 Z M 168.019531 82.582031 " clip-rule="nonzero"/></clipPath><clipPath id="91d0b92096"><path d="M 170.058594 74.160156 C 168.933594 78.8125 171.789062 83.496094 176.4375 84.621094 C 181.085938 85.75 185.769531 82.894531 186.898438 78.246094 C 188.027344 73.59375 185.171875 68.910156 180.523438 67.785156 C 175.871094 66.65625 171.1875 69.511719 170.058594 74.160156 Z M 170.058594 74.160156 " clip-rule="nonzero"/></clipPath><clipPath id="40bcc6211d"><path d="M 172 70 L 185 70 L 185 83 L 172 83 Z M 172 70 " clip-rule="nonzero"/></clipPath><clipPath id="4fe1303457"><path d="M 171.410156 80.511719 L 174.167969 69.132812 L 185.550781 71.894531 L 182.789062 83.273438 Z M 171.410156 80.511719 " clip-rule="nonzero"/></clipPath><clipPath id="32a45f1b8e"><path d="M 172.789062 74.824219 C 172.027344 77.964844 173.957031 81.128906 177.097656 81.894531 C 180.242188 82.65625 183.40625 80.726562 184.167969 77.582031 C 184.933594 74.441406 183.003906 71.273438 179.859375 70.511719 C 176.71875 69.75 173.550781 71.679688 172.789062 74.824219 Z M 172.789062 74.824219 " clip-rule="nonzero"/></clipPath><clipPath id="bbc1f4583f"><path d="M 174 72 L 182 72 L 182 80 L 174 80 Z M 174 72 " clip-rule="nonzero"/></clipPath><clipPath id="62e58283f6"><path d="M 174.183594 78.859375 L 175.847656 72 L 182.707031 73.664062 L 181.042969 80.523438 Z M 174.183594 78.859375 " clip-rule="nonzero"/></clipPath><clipPath id="452e81a398"><path d="M 175.015625 75.429688 C 174.554688 77.324219 175.71875 79.234375 177.613281 79.691406 C 179.507812 80.152344 181.414062 78.988281 181.875 77.09375 C 182.335938 75.199219 181.171875 73.292969 179.277344 72.832031 C 177.382812 72.375 175.476562 73.535156 175.015625 75.429688 Z M 175.015625 75.429688 " clip-rule="nonzero"/></clipPath><clipPath id="a0ace0daef"><path d="M 154 49 L 171 49 L 171 75 L 154 75 Z M 154 49 " clip-rule="nonzero"/></clipPath><clipPath id="452a3414c5"><path d="M 162.261719 77.480469 L 153.300781 51.464844 L 162.53125 48.285156 L 171.492188 74.300781 Z M 162.261719 77.480469 " clip-rule="nonzero"/></clipPath><clipPath id="324790b369"><path d="M 162.261719 77.480469 L 153.300781 51.464844 L 162.53125 48.285156 L 171.492188 74.300781 Z M 162.261719 77.480469 " clip-rule="nonzero"/></clipPath><clipPath id="62fd61c0e6"><path d="M 162.261719 77.480469 L 153.300781 51.464844 L 162.53125 48.285156 L 171.492188 74.300781 Z M 162.261719 77.480469 " clip-rule="nonzero"/></clipPath><clipPath id="ef82e8bf63"><path d="M 153 58 L 157 58 L 157 65 L 153 65 Z M 153 58 " clip-rule="nonzero"/></clipPath><clipPath id="0c965584e9"><path d="M 153.964844 65.417969 L 153.550781 57.441406 L 156.210938 57.304688 L 156.625 65.28125 Z M 153.964844 65.417969 " clip-rule="nonzero"/></clipPath><clipPath id="df639b711f"><path d="M 153.964844 65.417969 L 153.550781 57.441406 L 156.210938 57.304688 L 156.625 65.28125 Z M 153.964844 65.417969 " clip-rule="nonzero"/></clipPath><clipPath id="912d43f9e7"><path d="M 190 62 L 214 62 L 214 82 L 190 82 Z M 190 62 " clip-rule="nonzero"/></clipPath><clipPath id="0bab8506b5"><path d="M 217.734375 69.246094 L 194.585938 84.125 L 189.308594 75.910156 L 212.453125 61.03125 Z M 217.734375 69.246094 " clip-rule="nonzero"/></clipPath><clipPath id="2595cd164b"><path d="M 217.734375 69.246094 L 194.585938 84.125 L 189.308594 75.910156 L 212.453125 61.03125 Z M 217.734375 69.246094 " clip-rule="nonzero"/></clipPath><clipPath id="800f1194d1"><path d="M 217.734375 69.246094 L 194.585938 84.125 L 189.308594 75.910156 L 212.453125 61.03125 Z M 217.734375 69.246094 " clip-rule="nonzero"/></clipPath><clipPath id="64146d2cc3"><path d="M 100.382812 238.6875 L 260.277344 238.6875 L 260.277344 286.851562 L 100.382812 286.851562 Z M 100.382812 238.6875 " clip-rule="nonzero"/></clipPath></defs><rect x="-37.5" width="450" fill="#ffffff" y="-37.499999" height="449.999989" fill-opacity="1"/><rect x="-37.5" width="450" fill="#ebebeb" y="-37.499999" height="449.999989" fill-opacity="1"/><g clip-path="url(#ea92a03523)"><g clip-path="url(#82d62d6ada)"><g clip-path="url(#42f6e13239)"><path fill="#ffffff" d="M 170.347656 23.015625 L 180.550781 42.019531 L 161.546875 52.222656 L 151.34375 33.21875 Z M 170.347656 23.015625 " fill-opacity="1" fill-rule="nonzero"/></g></g></g><g clip-path="url(#4dc5d56b07)"><g clip-path="url(#51c1cf9d9a)"><g clip-path="url(#a31881c865)"><path fill="#357f5a" d="M 169.480469 25.886719 L 177.675781 41.15625 L 162.410156 49.351562 L 154.214844 34.085938 Z M 169.480469 25.886719 " fill-opacity="1" fill-rule="nonzero"/></g></g></g><g clip-path="url(#b36a106a42)"><g clip-path="url(#ad6cb56f88)"><g clip-path="url(#4b70402f55)"><path fill="#ffffff" d="M 168.335938 29.691406 L 173.875 40.007812 L 163.558594 45.546875 L 158.015625 35.230469 Z M 168.335938 29.691406 " fill-opacity="1" fill-rule="nonzero"/></g></g></g><g clip-path="url(#51cd129eb4)"><g clip-path="url(#98b494ec69)"><g clip-path="url(#435fe5c0b2)"><path fill="#357f5a" d="M 167.363281 32.769531 L 170.699219 38.988281 L 164.480469 42.328125 L 161.140625 36.109375 Z M 167.363281 32.769531 " fill-opacity="1" fill-rule="nonzero"/></g></g></g><g clip-path="url(#de99fa9edb)"><g clip-path="url(#bf7a487a36)"><g clip-path="url(#e5974d412d)"><path fill="#357f5a" d="M 173.429688 33.492188 C 173.203125 33.042969 173.441406 32.796875 173.695312 32.574219 C 174.386719 31.957031 175.164062 31.484375 176.078125 31.253906 C 178.984375 30.519531 181.894531 30.613281 184.769531 31.367188 C 187.722656 32.144531 190.1875 33.707031 192.0625 36.140625 C 192.945312 37.285156 193.761719 38.480469 194.640625 39.695312 C 194.667969 39.542969 194.722656 39.355469 194.738281 39.164062 C 194.878906 37.855469 195.054688 37.628906 196.324219 37.242188 C 196.609375 37.15625 196.910156 37.121094 197.277344 37.046875 C 197.292969 37.339844 197.308594 37.546875 197.3125 37.757812 C 197.347656 40.015625 197.347656 42.277344 197.449219 44.53125 C 197.472656 45.078125 197.273438 45.382812 196.917969 45.636719 C 196.195312 46.144531 195.335938 46.316406 194.488281 46.40625 C 194.191406 46.4375 193.820312 46.164062 193.542969 45.953125 C 191.519531 44.402344 189.371094 43.050781 187.050781 41.992188 C 186.328125 41.664062 185.558594 41.445312 184.742188 41.148438 C 184.78125 40.882812 185.054688 40.714844 185.300781 40.578125 C 186.460938 39.949219 187.660156 39.554688 188.980469 40.066406 C 189.605469 40.308594 190.230469 40.542969 190.851562 40.792969 C 191.128906 40.902344 191.394531 41.039062 191.730469 41.195312 C 191.261719 39.25 186.75 35.117188 183.921875 33.988281 C 180.484375 32.613281 176.96875 32.519531 173.429688 33.492188 Z M 173.429688 33.492188 " fill-opacity="1" fill-rule="nonzero"/></g></g></g><g clip-path="url(#9b597a0012)"><g clip-path="url(#81e3469820)"><g clip-path="url(#3fef95a180)"><path fill="#357f5a" d="M 195.5625 33.710938 C 194.808594 33.070312 192.441406 30.347656 191.359375 30.492188 C 190.007812 30.671875 190.441406 32.0625 191.085938 32.683594 C 191.773438 33.34375 193.875 35.78125 194.921875 35.6875 C 195.910156 35.601562 196.292969 34.363281 195.5625 33.710938 Z M 195.5625 33.710938 " fill-opacity="1" fill-rule="nonzero"/></g></g></g><g clip-path="url(#d37ac7a8d5)"><g clip-path="url(#9e19c32dfd)"><g clip-path="url(#3dc5fc5c72)"><path fill="#357f5a" d="M 202.117188 81.757812 C 203.035156 81.390625 206.550781 80.589844 206.9375 79.566406 C 207.417969 78.292969 205.984375 78.015625 205.132812 78.292969 C 204.230469 78.585938 201.089844 79.292969 200.675781 80.261719 C 200.289062 81.171875 201.199219 82.09375 202.117188 81.757812 Z M 202.117188 81.757812 " fill-opacity="1" fill-rule="nonzero"/></g></g></g><g clip-path="url(#b9c85000ce)"><g clip-path="url(#92d014aaf7)"><g clip-path="url(#9ecdcbefd8)"><path fill="#ffffff" d="M 221.4375 62.664062 L 199.867188 62.703125 L 199.832031 41.132812 L 221.402344 41.097656 Z M 221.4375 62.664062 " fill-opacity="1" fill-rule="nonzero"/></g></g></g><g clip-path="url(#d5e19c3ca7)"><g clip-path="url(#6a03f5ac39)"><g clip-path="url(#8a9d76f28b)"><path fill="#357f5a" d="M 219.3125 60.546875 L 201.984375 60.574219 L 201.957031 43.25 L 219.28125 43.21875 Z M 219.3125 60.546875 " fill-opacity="1" fill-rule="nonzero"/></g></g></g><g clip-path="url(#8b2af250e2)"><g clip-path="url(#62a672ce28)"><g clip-path="url(#835e05ec5d)"><path fill="#ffffff" d="M 216.5 57.742188 L 204.789062 57.761719 L 204.769531 46.050781 L 216.480469 46.03125 Z M 216.5 57.742188 " fill-opacity="1" fill-rule="nonzero"/></g></g></g><g clip-path="url(#153afef7a6)"><g clip-path="url(#5437d6be38)"><g clip-path="url(#181edeb0e9)"><path fill="#357f5a" d="M 214.234375 55.429688 L 207.175781 55.441406 L 207.164062 48.382812 L 214.222656 48.371094 Z M 214.234375 55.429688 " fill-opacity="1" fill-rule="nonzero"/></g></g></g><g clip-path="url(#2d9ead8934)"><path fill="#357f5a" d="M 265.675781 322.984375 L 109.101562 322.984375 C 74.621094 322.984375 46.644531 295.011719 46.644531 260.746094 L 46.644531 159.253906 C 46.644531 124.773438 74.621094 96.800781 109.101562 96.800781 L 180.667969 96.800781 L 180.882812 72.945312 C 171.558594 70.125 164.617188 61.449219 164.617188 51.042969 C 164.617188 38.464844 175.027344 28.269531 187.605469 28.269531 C 200.183594 28.269531 210.59375 38.464844 210.59375 51.042969 C 210.59375 61.449219 203.4375 70.339844 193.894531 73.160156 L 193.679688 96.800781 L 265.675781 96.800781 C 299.941406 96.800781 327.914062 124.773438 327.914062 159.253906 L 327.914062 260.964844 C 327.914062 295.226562 299.941406 322.984375 265.675781 322.984375 Z M 128.621094 224.53125 C 110.1875 224.53125 95.65625 210 95.65625 191.785156 C 95.65625 173.351562 110.1875 158.820312 128.621094 158.820312 C 147.050781 158.820312 161.367188 173.351562 161.367188 191.785156 C 161.367188 210 147.050781 224.53125 128.621094 224.53125 Z M 128.621094 171.832031 C 117.34375 171.832031 108.667969 180.507812 108.667969 191.785156 C 108.667969 202.84375 117.34375 211.519531 128.621094 211.519531 C 139.679688 211.519531 148.570312 202.84375 148.570312 191.785156 C 148.570312 180.507812 139.679688 171.832031 128.621094 171.832031 Z M 246.375 223.230469 C 227.941406 223.230469 213.195312 208.484375 213.195312 190.265625 C 213.195312 172.050781 227.941406 157.304688 246.375 157.304688 C 264.375 157.304688 279.121094 172.050781 279.121094 190.265625 C 279.121094 208.484375 264.375 223.230469 246.375 223.230469 Z M 246.375 170.316406 C 235.097656 170.316406 226.207031 179.421875 226.207031 190.265625 C 226.207031 201.328125 235.097656 210.433594 246.375 210.433594 C 257.433594 210.433594 266.109375 201.328125 266.109375 190.265625 C 266.109375 178.988281 257.21875 170.316406 246.375 170.316406 Z M 185.003906 262.699219 C 172.640625 262.699219 161.800781 256.84375 155.726562 251.636719 C 152.90625 249.253906 152.691406 244.914062 155.078125 242.53125 C 157.460938 239.929688 161.367188 239.492188 164.183594 242.097656 C 166.136719 243.832031 185.003906 258.792969 203.003906 242.3125 C 205.605469 239.929688 209.507812 239.929688 212.328125 242.53125 C 214.714844 245.347656 214.714844 249.253906 212.109375 251.855469 C 203.003906 259.664062 193.679688 262.699219 185.003906 262.699219 Z M 185.003906 262.699219 " fill-opacity="1" fill-rule="evenodd"/></g><g clip-path="url(#ccae8ef3da)"><path fill="#357f5a" d="M 33.632812 253.375 L 31.03125 253.375 C 15.417969 253.375 2.40625 240.578125 2.40625 224.746094 L 2.40625 180.507812 C 2.40625 164.675781 15.417969 151.664062 31.03125 151.664062 L 34.066406 151.664062 C 33.851562 154.050781 33.632812 156.652344 33.632812 159.253906 Z M 33.632812 253.375 " fill-opacity="1" fill-rule="evenodd"/></g><g clip-path="url(#220cae66a0)"><path fill="#357f5a" d="M 343.53125 253.375 L 340.925781 253.375 L 340.925781 159.253906 C 340.925781 156.4375 340.710938 153.832031 340.492188 151.449219 L 343.53125 151.449219 C 359.578125 151.449219 372.589844 164.242188 372.589844 180.289062 L 372.589844 224.746094 C 372.589844 240.796875 359.578125 253.375 343.53125 253.375 Z M 343.53125 253.375 " fill-opacity="1" fill-rule="evenodd"/></g><g clip-path="url(#e1f369f8c0)"><g clip-path="url(#0f73ce9e40)"><g clip-path="url(#e878b8999e)"><path fill="#ffffff" d="M 197.953125 153.160156 L 282.320312 132.199219 L 303.285156 216.5625 L 218.917969 237.527344 Z M 197.953125 153.160156 " fill-opacity="1" fill-rule="nonzero"/></g></g></g><g clip-path="url(#a5c69f0260)"><g clip-path="url(#b302f03625)"><g clip-path="url(#3b5d7814ed)"><path fill="#357f5a" d="M 208.3125 159.398438 L 276.082031 142.558594 L 292.921875 210.328125 L 225.152344 227.167969 Z M 208.3125 159.398438 " fill-opacity="1" fill-rule="nonzero"/></g></g></g><g clip-path="url(#47bebe7c90)"><g clip-path="url(#b11a49caa5)"><g clip-path="url(#3f6806f9c5)"><path fill="#ffffff" d="M 222.027344 167.652344 L 267.828125 156.269531 L 279.210938 202.074219 L 233.40625 213.453125 Z M 222.027344 167.652344 " fill-opacity="1" fill-rule="nonzero"/></g></g></g><g clip-path="url(#7b97b0fc81)"><g clip-path="url(#501a361db7)"><g clip-path="url(#55f0adcfa3)"><path fill="#357f5a" d="M 233.078125 174.488281 L 260.6875 167.628906 L 267.546875 195.234375 L 239.9375 202.097656 Z M 233.078125 174.488281 " fill-opacity="1" fill-rule="nonzero"/></g></g></g><g clip-path="url(#2e379bc734)"><g clip-path="url(#0518079f93)"><g clip-path="url(#4a4f32f939)"><path fill="#ffffff" d="M 71.007812 153.160156 L 155.375 132.199219 L 176.335938 216.5625 L 91.972656 237.527344 Z M 71.007812 153.160156 " fill-opacity="1" fill-rule="nonzero"/></g></g></g><g clip-path="url(#dc3284a1c7)"><g clip-path="url(#7d4f649d95)"><g clip-path="url(#95c82f3036)"><path fill="#357f5a" d="M 81.367188 159.398438 L 149.136719 142.558594 L 165.976562 210.328125 L 98.207031 227.167969 Z M 81.367188 159.398438 " fill-opacity="1" fill-rule="nonzero"/></g></g></g><g clip-path="url(#6ea56af49a)"><g clip-path="url(#5cefee4be6)"><g clip-path="url(#837d7c1922)"><path fill="#ffffff" d="M 95.078125 167.652344 L 140.882812 156.269531 L 152.265625 202.074219 L 106.460938 213.453125 Z M 95.078125 167.652344 " fill-opacity="1" fill-rule="nonzero"/></g></g></g><g clip-path="url(#1b1b79fd3d)"><g clip-path="url(#f0506d7d25)"><g clip-path="url(#1cbac0b011)"><path fill="#357f5a" d="M 106.132812 174.488281 L 133.738281 167.628906 L 140.601562 195.234375 L 112.992188 202.097656 Z M 106.132812 174.488281 " fill-opacity="1" fill-rule="nonzero"/></g></g></g><g clip-path="url(#0a3fa32b6f)"><g clip-path="url(#2293bbcd6a)"><g clip-path="url(#eb16e4ea53)"><path fill="#ffffff" d="M 165.457031 84.140625 L 170.539062 63.179688 L 191.503906 68.265625 L 186.417969 89.226562 Z M 165.457031 84.140625 " fill-opacity="1" fill-rule="nonzero"/></g></g></g><g clip-path="url(#3b3205468a)"><g clip-path="url(#717462f198)"><g clip-path="url(#91d0b92096)"><path fill="#357f5a" d="M 168.019531 82.582031 L 172.101562 65.742188 L 188.941406 69.828125 L 184.855469 86.664062 Z M 168.019531 82.582031 " fill-opacity="1" fill-rule="nonzero"/></g></g></g><g clip-path="url(#40bcc6211d)"><g clip-path="url(#4fe1303457)"><g clip-path="url(#32a45f1b8e)"><path fill="#ffffff" d="M 171.410156 80.511719 L 174.167969 69.132812 L 185.550781 71.894531 L 182.789062 83.273438 Z M 171.410156 80.511719 " fill-opacity="1" fill-rule="nonzero"/></g></g></g><g clip-path="url(#bbc1f4583f)"><g clip-path="url(#62e58283f6)"><g clip-path="url(#452e81a398)"><path fill="#357f5a" d="M 174.183594 78.859375 L 175.847656 72 L 182.707031 73.664062 L 181.042969 80.523438 Z M 174.183594 78.859375 " fill-opacity="1" fill-rule="nonzero"/></g></g></g><g clip-path="url(#a0ace0daef)"><g clip-path="url(#452a3414c5)"><g clip-path="url(#324790b369)"><g clip-path="url(#62fd61c0e6)"><path fill="#ffffff" d="M 170.207031 74.261719 C 170.078125 74.746094 169.734375 74.773438 169.394531 74.769531 C 168.460938 74.765625 167.558594 74.59375 166.71875 74.148438 C 164.039062 72.730469 161.914062 70.6875 160.253906 68.167969 C 158.554688 65.582031 157.75 62.730469 157.976562 59.628906 C 158.082031 58.167969 158.265625 56.710938 158.421875 55.203125 C 158.296875 55.300781 158.132812 55.402344 157.988281 55.535156 C 157.007812 56.425781 156.722656 56.476562 155.507812 55.90625 C 155.238281 55.78125 154.988281 55.601562 154.660156 55.410156 C 154.84375 55.179688 154.972656 55.011719 155.113281 54.851562 C 156.597656 53.125 158.117188 51.421875 159.554688 49.65625 C 159.90625 49.226562 160.253906 49.132812 160.695312 49.183594 C 161.578125 49.289062 162.34375 49.742188 163.039062 50.253906 C 163.28125 50.429688 163.378906 50.886719 163.445312 51.230469 C 163.929688 53.773438 164.636719 56.246094 165.667969 58.617188 C 165.992188 59.355469 166.425781 60.042969 166.839844 60.820312 C 166.632812 60.992188 166.3125 60.933594 166.035156 60.867188 C 164.742188 60.558594 163.574219 60.042969 162.925781 58.761719 C 162.617188 58.15625 162.304688 57.554688 162.003906 56.945312 C 161.871094 56.675781 161.761719 56.390625 161.617188 56.046875 C 160.660156 57.828125 161.285156 64 162.652344 66.769531 C 164.316406 70.136719 166.894531 72.589844 170.207031 74.261719 Z M 170.207031 74.261719 " fill-opacity="1" fill-rule="nonzero"/></g></g></g></g><g clip-path="url(#ef82e8bf63)"><g clip-path="url(#0c965584e9)"><g clip-path="url(#df639b711f)"><path fill="#357f5a" d="M 153.808594 59.347656 C 153.945312 60.328125 153.890625 63.933594 154.792969 64.550781 C 155.917969 65.320312 156.523438 63.992188 156.457031 63.101562 C 156.386719 62.152344 156.449219 58.933594 155.605469 58.304688 C 154.8125 57.710938 153.703125 58.375 153.808594 59.347656 Z M 153.808594 59.347656 " fill-opacity="1" fill-rule="nonzero"/></g></g></g><g clip-path="url(#912d43f9e7)"><g clip-path="url(#0bab8506b5)"><g clip-path="url(#2595cd164b)"><g clip-path="url(#800f1194d1)"><path fill="#ffffff" d="M 212.71875 62.289062 C 213.222656 62.300781 213.328125 62.628906 213.40625 62.960938 C 213.625 63.871094 213.671875 64.785156 213.4375 65.707031 C 212.695312 68.648438 211.21875 71.195312 209.160156 73.40625 C 207.054688 75.667969 204.472656 77.128906 201.40625 77.648438 C 199.960938 77.890625 198.503906 78.054688 197.003906 78.265625 C 197.125 78.363281 197.265625 78.496094 197.429688 78.605469 C 198.527344 79.347656 198.644531 79.613281 198.375 80.925781 C 198.316406 81.222656 198.207031 81.503906 198.09375 81.867188 C 197.828125 81.742188 197.632812 81.65625 197.445312 81.5625 C 195.414062 80.527344 193.402344 79.457031 191.34375 78.480469 C 190.84375 78.242188 190.671875 77.921875 190.617188 77.484375 C 190.507812 76.601562 190.769531 75.75 191.097656 74.953125 C 191.210938 74.675781 191.632812 74.472656 191.953125 74.324219 C 194.304688 73.253906 196.542969 71.976562 198.597656 70.414062 C 199.238281 69.925781 199.804688 69.339844 200.460938 68.753906 C 200.675781 68.914062 200.695312 69.238281 200.699219 69.519531 C 200.703125 70.851562 200.480469 72.109375 199.390625 73.046875 C 198.875 73.488281 198.363281 73.933594 197.84375 74.371094 C 197.613281 74.5625 197.363281 74.734375 197.066406 74.960938 C 199.023438 75.464844 204.871094 73.394531 207.234375 71.40625 C 210.109375 68.992188 211.882812 65.90625 212.71875 62.289062 Z M 212.71875 62.289062 " fill-opacity="1" fill-rule="nonzero"/></g></g></g></g><g clip-path="url(#64146d2cc3)"><path fill="#357f5a" d="M 100.382812 238.6875 L 260.300781 238.6875 L 260.300781 286.851562 L 100.382812 286.851562 Z M 100.382812 238.6875 " fill-opacity="1" fill-rule="nonzero"/></g><g fill="#ffffff" fill-opacity="1"><g transform="translate(62.579054, 271.217677)"><g><path d="M 23.25 12.265625 C 15.539062 8.472656 10.644531 4.101562 8.5625 -0.84375 C 6.726562 -5.238281 7.003906 -9.863281 9.390625 -14.71875 C 11.773438 -19.5625 15.269531 -22.597656 19.875 -23.828125 C 25.0625 -25.210938 31.507812 -24.007812 39.21875 -20.21875 C 46.925781 -16.425781 51.820312 -12.050781 53.90625 -7.09375 C 55.726562 -2.707031 55.445312 1.90625 53.0625 6.75 C 50.675781 11.601562 47.1875 14.648438 42.59375 15.890625 C 37.40625 17.265625 30.957031 16.054688 23.25 12.265625 Z M 27.359375 3.890625 C 30.515625 5.441406 33.273438 5.679688 35.640625 4.609375 C 37.554688 3.722656 39 2.289062 39.96875 0.3125 C 40.945312 -1.675781 41.203125 -3.6875 40.734375 -5.71875 C 40.148438 -8.269531 38.28125 -10.320312 35.125 -11.875 C 31.96875 -13.425781 29.191406 -13.65625 26.796875 -12.5625 C 24.890625 -11.707031 23.445312 -10.285156 22.46875 -8.296875 C 21.5 -6.316406 21.242188 -4.296875 21.703125 -2.234375 C 22.316406 0.296875 24.203125 2.335938 27.359375 3.890625 Z M 27.359375 3.890625 "/></g></g></g><g fill="#ffffff" fill-opacity="1"><g transform="translate(121.123763, 298.270439)"><g><path d="M 50.40625 9.640625 L 36.859375 7.046875 C 36.410156 6.066406 36.1875 4.890625 36.1875 3.515625 C 36.15625 2.441406 36.007812 1.367188 35.75 0.296875 C 35.5 -0.773438 34.894531 -1.742188 33.9375 -2.609375 C 32.976562 -3.484375 31.4375 -4.148438 29.3125 -4.609375 L 20.015625 -6.390625 L 18.125 3.46875 L 3.8125 0.734375 L 10.34375 -33.390625 L 33.625 -28.9375 C 39.1875 -27.875 43.59375 -26.597656 46.84375 -25.109375 C 50.101562 -23.628906 52.347656 -21.847656 53.578125 -19.765625 C 54.816406 -17.679688 55.160156 -15.207031 54.609375 -12.34375 C 54.148438 -9.945312 53.21875 -8.035156 51.8125 -6.609375 C 50.414062 -5.179688 48.453125 -4.21875 45.921875 -3.71875 C 48.003906 -2.34375 49.257812 -0.941406 49.6875 0.484375 C 50.113281 1.921875 50.257812 3.441406 50.125 5.046875 C 50.019531 6.472656 50.113281 8.003906 50.40625 9.640625 Z M 21.625 -14.796875 L 29.796875 -13.265625 C 32.085938 -12.828125 33.910156 -12.582031 35.265625 -12.53125 C 36.617188 -12.488281 37.644531 -12.585938 38.34375 -12.828125 C 39.039062 -13.066406 39.515625 -13.382812 39.765625 -13.78125 C 40.023438 -14.175781 40.195312 -14.609375 40.28125 -15.078125 C 40.363281 -15.535156 40.363281 -16.003906 40.28125 -16.484375 C 40.195312 -16.960938 39.875 -17.4375 39.3125 -17.90625 C 38.757812 -18.382812 37.84375 -18.851562 36.5625 -19.3125 C 35.28125 -19.769531 33.492188 -20.21875 31.203125 -20.65625 L 23.03125 -22.21875 Z M 21.625 -14.796875 "/></g></g></g><g fill="#ffffff" fill-opacity="1"><g transform="translate(185.558812, 309.063468)"><g><path d="M 28.6875 -2.46875 L 3.859375 -0.328125 L 0.875 -34.921875 L 26.234375 -37.109375 C 30.734375 -37.492188 34.457031 -37.601562 37.40625 -37.4375 C 40.351562 -37.28125 42.65625 -36.832031 44.3125 -36.09375 C 45.96875 -35.363281 47.132812 -34.347656 47.8125 -33.046875 C 48.488281 -31.742188 48.90625 -30.148438 49.0625 -28.265625 C 49.144531 -26.773438 48.84375 -25.515625 48.15625 -24.484375 C 47.476562 -23.453125 46.648438 -22.648438 45.671875 -22.078125 C 44.691406 -21.515625 43.816406 -21.195312 43.046875 -21.125 C 43.804688 -21.195312 44.703125 -21.125 45.734375 -20.90625 C 46.773438 -20.695312 47.796875 -20.351562 48.796875 -19.875 C 49.804688 -19.394531 50.660156 -18.78125 51.359375 -18.03125 C 52.066406 -17.28125 52.46875 -16.390625 52.5625 -15.359375 C 52.675781 -14.015625 52.625 -12.765625 52.40625 -11.609375 C 52.1875 -10.460938 51.644531 -9.410156 50.78125 -8.453125 C 49.914062 -7.503906 48.59375 -6.648438 46.8125 -5.890625 C 45.039062 -5.128906 42.679688 -4.460938 39.734375 -3.890625 C 36.796875 -3.328125 33.113281 -2.851562 28.6875 -2.46875 Z M 26.109375 -22.671875 C 28.242188 -22.847656 29.882812 -23.085938 31.03125 -23.390625 C 32.175781 -23.703125 32.953125 -24.09375 33.359375 -24.5625 C 33.773438 -25.03125 33.953125 -25.597656 33.890625 -26.265625 C 33.835938 -26.929688 33.566406 -27.457031 33.078125 -27.84375 C 32.597656 -28.226562 31.765625 -28.472656 30.578125 -28.578125 C 29.398438 -28.679688 27.742188 -28.644531 25.609375 -28.46875 L 16.140625 -27.640625 L 16.640625 -21.84375 Z M 27.125 -10.953125 C 29.300781 -11.140625 31.0625 -11.34375 32.40625 -11.5625 C 33.75 -11.789062 34.710938 -12.132812 35.296875 -12.59375 C 35.890625 -13.050781 36.148438 -13.726562 36.078125 -14.625 C 36.003906 -15.519531 35.632812 -16.144531 34.96875 -16.5 C 34.3125 -16.863281 33.300781 -17.039062 31.9375 -17.03125 C 30.570312 -17.03125 28.800781 -16.9375 26.625 -16.75 L 17.15625 -15.921875 L 17.65625 -10.125 Z M 27.125 -10.953125 "/></g></g></g><g fill="#ffffff" fill-opacity="1"><g transform="translate(251.36608, 300.554966)"><g><path d="M 17.671875 -5.3125 L 3.703125 -1.109375 L -6.3125 -34.390625 L 7.65625 -38.59375 Z M 17.671875 -5.3125 "/></g></g></g><g fill="#ffffff" fill-opacity="1"><g transform="translate(282.859883, 291.140845)"><g><path d="M 26.359375 -13.546875 L 13.40625 -6.875 L 1.453125 -30.140625 L -10.65625 -23.921875 L -14.578125 -31.5625 L 22.59375 -50.671875 L 26.515625 -43.03125 L 14.40625 -36.8125 Z M 26.359375 -13.546875 "/></g></g></g></svg>